<svg width="95" height="95" viewBox="0 0 95 95" fill="none" xmlns="http://www.w3.org/2000/svg">
<path d="M43.7253 0.0412903C40.3561 0.400681 38.5891 0.685196 36.2381 1.25422C27.8674 3.2608 20.1406 7.55846 14.0011 13.653C6.90321 20.691 2.18627 29.9003 0.598977 39.7834C0.0149744 43.4222 0 44.3057 0 70.0018V94.9043L27.7476 94.8444C55.3754 94.7995 55.4803 94.7995 57.2772 94.485C62.668 93.5117 67.1603 91.8795 72.1768 89.0792C76.8039 86.4887 81.3711 82.76 84.1713 79.286C85.2045 77.9982 86.8517 75.6921 86.8517 75.5274C86.8517 75.4974 87.1961 74.8685 87.6304 74.1348C88.5738 72.4876 90.0413 69.4478 90.9397 67.2615C95.6567 55.7162 96.2107 43.6768 92.542 32.5957C91.4938 29.4361 89.5621 25.2732 87.84 22.488C82.9883 14.6563 76.3396 8.60667 68.2085 4.66839C65.034 3.141 61.9792 2.03289 58.6998 1.25422C57.2622 0.894836 56.3638 0.730118 53.3838 0.250938C52.3806 0.0862198 44.8035 -0.0784988 43.7253 0.0412903ZM61.7396 38.3758L63.0424 38.7951V43.9763C63.0424 49.4719 62.9825 50.1308 62.2787 51.4934C61.8444 52.347 60.6614 53.4551 59.6581 53.9492C58.0409 54.7429 55.7648 54.5782 54.1925 53.5749C52.4405 52.4668 51.512 50.8046 51.512 48.7681C51.512 44.8897 55.046 42.1344 58.6998 43.1676C59.149 43.2874 59.6432 43.4372 59.7929 43.4821C60.0325 43.557 60.0475 43.3623 60.0475 40.6819C60.0475 38.4357 60.0924 37.8218 60.2421 37.8817C60.332 37.9116 61.0058 38.1362 61.7396 38.3758ZM33.393 40.7418V43.4821L34.1866 43.2725C36.5226 42.6435 39.0683 43.8415 40.1165 46.0727C40.5058 46.8813 40.5058 46.9712 40.5508 50.6698L40.5957 54.4584H39.0833H37.5858V51.1939C37.5858 48.3937 37.5559 47.8696 37.3163 47.4204C36.7622 46.3273 35.3546 45.893 34.3364 46.5219C33.5128 47.0161 33.4678 47.1958 33.393 50.9394L33.3181 54.3835L31.7907 54.4284L30.2483 54.4733V46.7016V38.9449L31.641 38.4807C32.3897 38.2261 33.1085 38.0015 33.2133 38.0015C33.3481 37.9865 33.393 38.6304 33.393 40.7418ZM50.3141 46.1476V54.3086H48.7418H47.1695L47.1994 46.6417L47.2443 38.9898L48.6669 38.4956C49.4456 38.2261 50.1344 38.0015 50.2093 38.0015C50.2692 37.9865 50.3141 41.6552 50.3141 46.1476ZM67.8342 46.1476V54.3086H66.2619H64.6895V46.6267V38.9449L66.0822 38.4807C66.8309 38.2261 67.5497 38.0015 67.6545 38.0015C67.7892 37.9865 67.8342 39.7086 67.8342 46.1476ZM25.1271 38.5106C26.5796 38.855 27.8075 39.5588 28.9306 40.6819C29.4996 41.2509 29.9489 41.7601 29.9489 41.82C29.9489 41.8948 29.3499 42.3441 28.6311 42.8083L27.3283 43.6768L26.6545 43.0029C24.6329 41.0263 21.4733 41.0862 19.6465 43.1527C17.9843 45.0395 17.9993 47.9894 19.6764 49.6815C20.9492 50.9693 22.8959 51.5533 24.4233 51.1191C25.3966 50.8346 26.5497 50.1308 26.8941 49.6067C27.0288 49.397 27.2085 49.2173 27.3134 49.2173C27.4032 49.2173 28.0321 49.5917 28.721 50.0409C30.1435 50.9993 30.1435 50.9394 28.7958 52.2272C27.2535 53.6947 25.3218 54.4584 23.1355 54.4584C20.8744 54.4584 19.1972 53.7546 17.58 52.1523C15.4836 50.0709 14.6899 47.2856 15.3488 44.4405C16.3521 40.2327 20.8444 37.5073 25.1271 38.5106ZM45.3725 48.4686V54.3086H43.8002H42.2279L42.2578 48.9627L42.3028 43.6319L43.7253 43.1377C44.504 42.8682 45.1928 42.6435 45.2677 42.6435C45.3276 42.6286 45.3725 45.2491 45.3725 48.4686ZM72.5361 46.0727C73.2699 47.8097 73.9138 49.2173 73.9587 49.2173C74.0036 49.2173 74.6026 47.8247 75.2615 46.1026L76.4744 43.0029L78.1516 42.958C79.065 42.943 79.8137 42.958 79.8137 43.0029C79.8137 43.1826 73.779 58.1271 73.6293 58.3068C73.4496 58.5464 70.3798 58.5763 70.3798 58.3517C70.3798 58.2768 70.8141 57.1238 71.3532 55.821C71.8922 54.5033 72.3265 53.3652 72.3265 53.2754C72.3265 53.1855 71.3532 50.9094 70.1552 48.214C68.9573 45.5186 67.9839 43.2275 67.9839 43.1227C67.9839 42.973 68.3882 42.9281 69.6012 42.9281H71.2034L72.5361 46.0727Z" fill="#DA9BFD"/>
<path d="M56.3786 46.1017C54.8213 46.6558 54.1025 48.2581 54.7315 49.7705C55.0309 50.4893 55.3454 50.8337 56.0342 51.1781C56.7979 51.5674 57.5916 51.5375 58.49 51.0882C60.1821 50.2347 60.5116 48.273 59.1938 46.8205C58.4601 45.9969 57.4269 45.7274 56.3786 46.1017Z" fill="#DA9BFD"/>
<rect x="11.9795" y="26.3564" width="71.5778" height="38.634" fill="#DA9BFD"/>
<path d="M24.22 39.4733C25.1933 39.4733 26.0467 39.6133 26.78 39.8933C27.5267 40.16 27.9 40.5267 27.9 40.9933C27.9 41.46 27.72 42.04 27.36 42.7333C27.0133 43.4133 26.72 43.7533 26.48 43.7533C26.4133 43.7533 26.3333 43.72 26.24 43.6533C26.16 43.5733 25.96 43.4933 25.64 43.4133C25.3333 43.32 25.0667 43.2733 24.84 43.2733C24.0667 43.2733 23.44 43.5467 22.96 44.0933C22.4933 44.64 22.26 45.48 22.26 46.6133C22.26 47.7333 22.5 48.5667 22.98 49.1133C23.4733 49.66 24.0933 49.9333 24.84 49.9333C25.1467 49.9333 25.4867 49.8933 25.86 49.8133C26.2467 49.72 26.52 49.5933 26.68 49.4333C26.7067 49.4067 26.76 49.3933 26.84 49.3933C26.92 49.3933 27.0667 49.5467 27.28 49.8533C27.5067 50.1467 27.7133 50.54 27.9 51.0333C28.0867 51.5133 28.18 51.8867 28.18 52.1533C28.18 52.6733 27.78 53.0867 26.98 53.3933C26.18 53.7 25.2333 53.8533 24.14 53.8533C22.38 53.8533 20.9333 53.2333 19.8 51.9933C18.6667 50.7533 18.1 49.0067 18.1 46.7533C18.1 44.4867 18.68 42.7067 19.84 41.4133C21.0133 40.12 22.4733 39.4733 24.22 39.4733ZM32.9509 53.5133C32.9509 53.6333 32.3909 53.6933 31.2709 53.6933C30.1643 53.6933 29.6109 53.6 29.6109 53.4133V39.7133C29.6109 39.62 29.8176 39.5533 30.2309 39.5133C30.6443 39.4733 30.9909 39.4533 31.2709 39.4533C32.3909 39.4533 32.9509 39.5733 32.9509 39.8133V43.8133C33.6976 43.5867 34.2643 43.4733 34.6509 43.4733C35.6643 43.4733 36.4643 43.7467 37.0509 44.2933C37.6376 44.8267 37.9309 45.8267 37.9309 47.2933V53.4933C37.9309 53.6133 37.4109 53.6733 36.3709 53.6733C35.1976 53.6333 34.6109 53.5667 34.6109 53.4733V47.5933C34.6109 46.94 34.3976 46.6133 33.9709 46.6133C33.6776 46.6133 33.3376 46.7533 32.9509 47.0333V53.5133ZM43.2905 53.5333C43.2905 53.64 42.6771 53.6933 41.4505 53.6933C40.2371 53.6933 39.6305 53.6467 39.6305 53.5533V43.7333C39.6305 43.64 40.2371 43.5933 41.4505 43.5933C42.6771 43.5933 43.2905 43.6333 43.2905 43.7133V53.5333ZM43.2905 42.5333C43.2905 42.6267 42.6771 42.6733 41.4505 42.6733C40.2371 42.6733 39.6305 42.6333 39.6305 42.5533V39.6733C39.6305 39.54 40.2371 39.4733 41.4505 39.4733C42.6771 39.4733 43.2905 39.5133 43.2905 39.5933V42.5333ZM48.7392 53.4933C48.7392 53.6133 48.0592 53.6733 46.6992 53.6733C45.6326 53.66 45.0992 53.6067 45.0992 53.5133V39.8933C45.0992 39.6933 45.7459 39.5933 47.0392 39.5933C48.1726 39.6333 48.7392 39.7 48.7392 39.7933V53.4933ZM55.6084 39.7733C55.6084 39.5733 56.1351 39.4733 57.1884 39.4733C57.5484 39.4733 57.9618 39.5 58.4284 39.5533C58.9084 39.5933 59.1484 39.6533 59.1484 39.7333V50.2733H59.8484C60.1818 50.2733 60.4018 50.5733 60.5084 51.1733C60.5351 51.3467 60.5484 51.5867 60.5484 51.8933C60.5484 52.1867 60.4551 52.5467 60.2684 52.9733C60.0018 53.56 59.5751 53.8533 58.9884 53.8533C58.5484 53.8533 58.1551 53.7667 57.8084 53.5933C57.4751 53.42 57.2484 53.24 57.1284 53.0533L56.9484 52.7933C56.2151 53.5 55.2951 53.8533 54.1884 53.8533C53.0818 53.8533 52.1351 53.3933 51.3484 52.4733C50.5618 51.5533 50.1684 50.2733 50.1684 48.6333C50.1684 46.98 50.5818 45.7067 51.4084 44.8133C52.2351 43.9067 53.2684 43.4533 54.5084 43.4533C54.8684 43.4533 55.2351 43.4933 55.6084 43.5733V39.7733ZM54.9484 46.6533C54.2018 46.6533 53.8284 47.3267 53.8284 48.6733C53.8284 49.3533 53.9351 49.8467 54.1484 50.1533C54.3618 50.4467 54.5951 50.5933 54.8484 50.5933C55.1151 50.5933 55.3684 50.48 55.6084 50.2533V46.8533C55.3818 46.72 55.1618 46.6533 54.9484 46.6533ZM65.497 53.4933C65.497 53.6133 64.817 53.6733 63.457 53.6733C62.3904 53.66 61.857 53.6067 61.857 53.5133V39.8933C61.857 39.6933 62.5037 39.5933 63.797 39.5933C64.9304 39.6333 65.497 39.7 65.497 39.7933V53.4933ZM66.6063 43.7533C66.6063 43.6067 67.2129 43.5333 68.4263 43.5333C69.6529 43.5333 70.2863 43.6 70.3263 43.7333L71.7663 48.4533L73.1463 43.6933C73.1996 43.5867 73.6129 43.5333 74.3863 43.5333C76.1596 43.5333 77.0063 43.62 76.9263 43.7933L72.2263 57.1733C72.2129 57.2533 71.8463 57.2933 71.1263 57.2933C70.4196 57.2933 69.7596 57.2667 69.1463 57.2133C68.5329 57.1733 68.2396 57.12 68.2663 57.0533L70.0063 52.8533L66.6063 43.7533Z" fill="white"/>
</svg>
