<svg width="50" height="50" viewBox="0 0 50 50" fill="none" xmlns="http://www.w3.org/2000/svg">
<path d="M23.1251 39.5837H26.7709V36.9795C28.507 36.667 30.0001 35.9899 31.2501 34.9482C32.5001 33.9066 33.1251 32.3614 33.1251 30.3128C33.1251 28.8545 32.7084 27.5177 31.8751 26.3024C31.0418 25.0871 29.3751 24.0281 26.8751 23.1253C24.7918 22.4309 23.3508 21.8232 22.5522 21.3024C21.7536 20.7816 21.3543 20.0698 21.3543 19.167C21.3543 18.2642 21.6754 17.5524 22.3178 17.0316C22.9602 16.5107 23.889 16.2503 25.1043 16.2503C26.2154 16.2503 27.0834 16.5194 27.7084 17.0576C28.3334 17.5958 28.7848 18.2642 29.0626 19.0628L32.3959 17.7087C32.014 16.4934 31.3109 15.4344 30.2865 14.5316C29.2622 13.6288 28.1251 13.1253 26.8751 13.0212V10.417H23.2293V13.0212C21.4931 13.4031 20.139 14.167 19.1668 15.3128C18.1945 16.4587 17.7084 17.7434 17.7084 19.167C17.7084 20.7989 18.1858 22.1184 19.1407 23.1253C20.0956 24.1323 21.5973 25.0003 23.6459 25.7295C25.8334 26.5281 27.3525 27.2399 28.2032 27.8649C29.0539 28.4899 29.4793 29.3059 29.4793 30.3128C29.4793 31.4587 29.0713 32.3007 28.2553 32.8389C27.4393 33.3771 26.4584 33.6462 25.3126 33.6462C24.1668 33.6462 23.1511 33.2903 22.2657 32.5785C21.3803 31.8666 20.7293 30.7989 20.3126 29.3753L16.8751 30.7295C17.3612 32.3962 18.1164 33.7417 19.1407 34.766C20.165 35.7903 21.4931 36.4934 23.1251 36.8753V39.5837ZM25.0001 45.8337C22.1181 45.8337 19.4098 45.2868 16.8751 44.193C14.3404 43.0993 12.1355 41.6149 10.2605 39.7399C8.3855 37.8649 6.90112 35.6601 5.80737 33.1253C4.71362 30.5906 4.16675 27.8823 4.16675 25.0003C4.16675 22.1184 4.71362 19.4101 5.80737 16.8753C6.90112 14.3406 8.3855 12.1357 10.2605 10.2607C12.1355 8.38574 14.3404 6.90137 16.8751 5.80762C19.4098 4.71387 22.1181 4.16699 25.0001 4.16699C27.882 4.16699 30.5904 4.71387 33.1251 5.80762C35.6598 6.90137 37.8647 8.38574 39.7397 10.2607C41.6147 12.1357 43.099 14.3406 44.1928 16.8753C45.2865 19.4101 45.8334 22.1184 45.8334 25.0003C45.8334 27.8823 45.2865 30.5906 44.1928 33.1253C43.099 35.6601 41.6147 37.8649 39.7397 39.7399C37.8647 41.6149 35.6598 43.0993 33.1251 44.193C30.5904 45.2868 27.882 45.8337 25.0001 45.8337ZM25.0001 41.667C29.6529 41.667 33.5938 40.0524 36.823 36.8232C40.0522 33.5941 41.6668 29.6531 41.6668 25.0003C41.6668 20.3476 40.0522 16.4066 36.823 13.1774C33.5938 9.94824 29.6529 8.33366 25.0001 8.33366C20.3473 8.33366 16.4063 9.94824 13.1772 13.1774C9.948 16.4066 8.33342 20.3476 8.33342 25.0003C8.33342 29.6531 9.948 33.5941 13.1772 36.8232C16.4063 40.0524 20.3473 41.667 25.0001 41.667Z" fill="#17CD34"/>
</svg>
