<svg width="50" height="50" viewBox="0 0 50 50" fill="none" xmlns="http://www.w3.org/2000/svg">
<path d="M0.177993 28.3137C0.691646 31.9671 2.07281 35.6547 4.08178 38.703C8.11112 44.811 14.5718 48.864 21.8086 49.8459C23.3496 50.0514 26.6598 50.0514 28.2008 49.8459C35.4376 48.864 41.8983 44.811 45.9276 38.703C47.9822 35.5862 49.3406 31.9214 49.8428 28.1538C50.0254 26.6925 50.0597 23.5414 49.8885 22.1486C48.9981 14.7847 44.9003 8.17435 38.7022 4.0757C35.6088 2.0435 31.9333 0.662061 28.2008 0.159719C25.6439 -0.182788 20.7585 0.0683835 19.6627 0.593561C18.6582 1.07307 18.2358 2.35175 18.7267 3.36786C19.0235 3.98436 19.6398 4.44104 20.2905 4.53238C20.5302 4.56662 21.2835 4.50954 21.9684 4.40679C23.829 4.13279 25.37 4.06428 26.8082 4.2127C35.1522 5.06897 42.0466 10.4806 44.7291 18.2783C46.8522 24.4548 45.9733 31.0766 42.2978 36.5909C40.7111 38.9656 38.7935 40.8722 36.4078 42.4249C30.9859 45.987 24.3655 46.8318 18.2815 44.7311C10.4625 42.0482 5.02919 35.1067 4.21875 26.7724C4.07036 25.2311 4.11602 24.0095 4.4128 21.8974C4.5726 20.7329 4.58402 20.3676 4.48129 20.0022C4.10461 18.7578 2.74627 18.1527 1.54774 18.7121C0.645987 19.1231 0.42911 19.6026 0.189406 21.7033C-0.0274708 23.5414 -0.0274706 26.7838 0.177993 28.3137Z" fill="#E91E63"/>
<path d="M0.189428 9.24917C0.509036 9.72868 4.9493 14.1584 5.31457 14.3639C5.61135 14.5352 6.10218 14.558 8.68187 14.5923L11.7067 14.6265L17.8135 20.7231C21.1694 24.0797 24.0687 26.8768 24.2399 26.9339C25.427 27.3791 26.8653 26.5685 27.0251 25.3698C27.1735 24.2281 27.4702 24.5706 20.7813 17.8689L14.6289 11.7038L14.5946 8.67833C14.5604 6.09812 14.5375 5.60719 14.3663 5.31035C14.1609 4.94502 9.73201 0.503857 9.2526 0.184186C8.60197 -0.238238 7.10666 0.104268 6.593 0.812114C6.25057 1.2802 6.17066 1.87388 6.17066 4.07733L6.17066 6.16662L4.13887 6.16662C1.92444 6.17804 1.27381 6.25795 0.817229 6.58904C0.109525 7.1028 -0.244326 8.59841 0.189428 9.24917Z" fill="#E91E63"/>
<path d="M10.5197 26.9918C11.3986 33.5565 16.5922 38.6827 23.1785 39.4933C32.2302 40.6236 40.0264 33.4195 39.5812 24.3203C39.3986 20.5641 37.9831 17.3218 35.392 14.7301C32.5612 11.8873 29.1026 10.5173 25.039 10.6429C23.8519 10.6772 23.6008 10.7114 23.3268 10.9169C22.7561 11.3393 22.4936 11.8417 22.4936 12.5267C22.4936 13.9995 23.304 14.616 25.2559 14.616C27.9383 14.616 30.4039 15.6549 32.3786 17.63C33.9196 19.1713 34.7985 20.8153 35.2208 22.9389C35.4834 24.2404 35.4035 26.6379 35.061 27.8367C34.5131 29.7205 33.5885 31.2503 32.196 32.5747C30.2441 34.447 27.8242 35.3946 25.0048 35.3946C22.0484 35.3946 19.6742 34.4242 17.631 32.3806C15.6334 30.3826 14.6175 27.9623 14.6175 25.1537C14.6175 23.9093 14.4349 23.3499 13.8642 22.8133C12.9738 21.9798 11.547 22.1283 10.7822 23.1329C10.4626 23.544 10.4512 23.6125 10.4284 24.8797C10.417 25.6104 10.4626 26.558 10.5197 26.9918Z" fill="#E91E63"/>
</svg>
